<svg id="visual" viewBox="0 0 900 600" width="900" height="600" xmlns="http://www.w3.org/2000/svg" xmlns:xlink="http://www.w3.org/1999/xlink" version="1.1"><rect x="0" y="0" width="900" height="600" fill="#F5F7FF"></rect><defs><linearGradient id="grad1_0" x1="33.3%" y1="0%" x2="100%" y2="100%"><stop offset="20%" stop-color="#f5f7ff" stop-opacity="1"></stop><stop offset="80%" stop-color="#f5f7ff" stop-opacity="1"></stop></linearGradient></defs><defs><linearGradient id="grad2_0" x1="0%" y1="0%" x2="66.7%" y2="100%"><stop offset="20%" stop-color="#f5f7ff" stop-opacity="1"></stop><stop offset="80%" stop-color="#f5f7ff" stop-opacity="1"></stop></linearGradient></defs><g transform="translate(900, 0)"><path d="M0 270.4C-41.4 272.5 -82.8 274.6 -103.5 249.8C-124.2 225.1 -124.2 173.4 -147.1 147.1C-170 120.8 -215.8 119.8 -240.2 99.5C-264.6 79.2 -267.5 39.6 -270.4 0L0 0Z" fill="#144ff0"></path></g><g transform="translate(0, 600)"><path d="M0 -270.4C36.7 -267.7 73.5 -265 103.5 -249.8C133.5 -234.7 156.7 -207.2 181.7 -181.7C206.7 -156.3 233.5 -132.9 248.5 -102.9C263.6 -73 267 -36.5 270.4 0L0 0Z" fill="#144ff0"></path></g></svg>